<svg aria-hidden="true" style="position: absolute; width: 0; height: 0; overflow: hidden;" version="1.1" xmlns="http://www.w3.org/2000/svg" xmlns:xlink="http://www.w3.org/1999/xlink">
<defs>
<symbol id="icon-dribbble" viewBox="0 0 32 32">
<title>dribbble</title>
<path d="M31.674 12.8c-0.237-1.144-0.558-2.148-0.971-3.102l0.039 0.102c-0.45-1.045-0.944-1.939-1.513-2.777l0.037 0.057c-0.603-0.882-1.245-1.653-1.952-2.36l-0-0c-0.71-0.707-1.484-1.351-2.312-1.923l-0.056-0.037c-2.507-1.72-5.607-2.747-8.947-2.747s-6.44 1.027-9.001 2.783l0.054-0.035c-0.883 0.609-1.656 1.253-2.367 1.961l0.001-0.001c-0.707 0.707-1.349 1.478-1.916 2.305l-0.036 0.055c-0.532 0.781-1.026 1.675-1.435 2.614l-0.041 0.106c-0.374 0.852-0.696 1.856-0.916 2.897l-0.018 0.103c-0.206 0.971-0.324 2.087-0.324 3.23s0.118 2.259 0.342 3.336l-0.018-0.106c0.238 1.144 0.56 2.148 0.973 3.102l-0.039-0.102c0.45 1.045 0.944 1.939 1.513 2.777l-0.037-0.057c0.603 0.882 1.245 1.653 1.952 2.36l0 0c0.71 0.707 1.483 1.351 2.31 1.923l0.056 0.037c2.507 1.72 5.607 2.747 8.947 2.747s6.44-1.027 9.001-2.783l-0.054 0.035c0.884-0.609 1.658-1.253 2.369-1.961l-0.001 0.001c0.707-0.707 1.349-1.478 1.916-2.305l0.036-0.055c0.532-0.781 1.026-1.675 1.435-2.614l0.041-0.106c0.373-0.852 0.695-1.856 0.914-2.897l0.018-0.103c0.207-0.971 0.326-2.087 0.326-3.23s-0.119-2.259-0.344-3.335l0.018 0.105zM29.66 15.9c-1.889-0.397-4.059-0.624-6.283-0.624-1.139 0-2.265 0.060-3.374 0.176l0.138-0.012c-0.096-0.22-0.2-0.46-0.294-0.7-0.284-0.66-0.59-1.34-0.908-1.98 3.060-1.14 5.628-2.995 7.59-5.37l0.024-0.030c1.911 2.303 3.080 5.283 3.106 8.534l0 0.006zM25.026 5.78c-1.815 2.277-4.242 3.994-7.033 4.91l-0.105 0.030c-1.691-3.064-3.382-5.666-5.236-8.138l0.128 0.178c0.967-0.254 2.076-0.4 3.22-0.4v0c3.469 0 6.635 1.297 9.040 3.432l-0.014-0.012zM12.728 2.76h0c-0.001-0-0.002-0-0.003-0-0.015 0-0.029 0.008-0.037 0.020l-0 0c0.011-0.010 0.024-0.017 0.040-0.020v0zM10.17 3.68c1.656 2.237 3.334 4.804 4.865 7.466l0.209 0.394c-3.775 1.031-8.116 1.642-12.593 1.68l-0.023 0c0.918-4.251 3.716-7.706 7.46-9.505l0.082-0.035zM2.336 16.020c0-0.14 0-0.28 0-0.42 0.053 0 0.115 0 0.178 0 4.934 0 9.702-0.709 14.209-2.030l-0.357 0.090c0.4 0.76 0.766 1.54 1.108 2.32-0.22 0.053-0.4 0.108-0.575 0.172l0.037-0.012c-4.701 1.717-8.535 4.873-11.061 8.929l-0.053 0.091c-2.163-2.4-3.486-5.594-3.486-9.098 0-0.015 0-0.030 0-0.045v0.002zM16 29.7c-0.004 0-0.008 0-0.012 0-3.315 0-6.354-1.186-8.713-3.158l0.022 0.018 0.306 0.24c2.357-4.075 6.111-7.119 10.593-8.505l0.131-0.035c0.030 0 0.060-0.020 0.090-0.020 1.182 2.944 2.193 6.427 2.864 10.029l0.054 0.351c-1.575 0.678-3.407 1.075-5.332 1.080h-0.002zM23.636 27.36c-0.692-3.745-1.613-7.020-2.794-10.169l0.134 0.409c0.873-0.137 1.879-0.215 2.903-0.215 2.001 0 3.932 0.298 5.753 0.851l-0.14-0.037c-0.632 3.835-2.786 7.073-5.809 9.13l-0.047 0.030z"></path>
</symbol>
<symbol id="icon-PIN-2" viewBox="0 0 24 32">
<title>PIN-2</title>
<path fill="#f38181" style="fill: var(--color2, #f38181)" d="M11.983 31.988s-11.991-13.365-11.991-19.984c0-6.622 5.368-11.991 11.991-11.991s11.991 5.368 11.991 11.991v0c0 6.62-11.991 19.984-11.991 19.984zM11.983 4.009c-4.415 0-7.994 3.579-7.994 7.994s3.579 7.994 7.994 7.994c4.415 0 7.994-3.579 7.994-7.994v0c0-4.415-3.579-7.994-7.994-7.994v0zM11.983 16c-2.207 0-3.997-1.789-3.997-3.997s1.789-3.997 3.997-3.997c2.207 0 3.997 1.789 3.997 3.997v0c0 2.207-1.789 3.997-3.997 3.997v0z"></path>
</symbol>
<symbol id="icon-SPEECH-BUBBLE-2" viewBox="0 0 36 32">
<title>SPEECH-BUBBLE-2</title>
<path fill="#95e1d3" style="fill: var(--color1, #95e1d3)" d="M18.969 27.464c-1.401-0.106-2.686-0.305-3.937-0.595l0.174 0.034c-2.634 3.135-6.557 5.114-10.943 5.114-0.613 0-1.216-0.039-1.809-0.114l0.070 0.007c5.482-2.582 5.369-6.894 4.395-7.455-3.966-2.045-6.678-6.027-6.889-10.662l-0.001-0.027c0-7.635 8.369-13.788 18.939-13.788s17.015 6.153 17.015 13.788-6.443 13.698-17.015 13.698zM9.595 10.667c-1.86 0-3.368 1.508-3.368 3.368s1.508 3.368 3.368 3.368c1.86 0 3.368-1.508 3.368-3.368 0-0.008-0-0.016-0-0.024v0.001c-0.013-1.851-1.516-3.346-3.368-3.346-0 0-0 0-0 0v0zM18.017 10.667c-1.86 0-3.368 1.508-3.368 3.368s1.508 3.368 3.368 3.368c1.86 0 3.368-1.508 3.368-3.368 0-0.008-0-0.016-0-0.024v0.001c-0.013-1.851-1.516-3.346-3.368-3.346-0 0-0 0-0 0v0zM26.438 10.667c-1.86 0-3.368 1.508-3.368 3.368s1.508 3.368 3.368 3.368c1.86 0 3.368-1.508 3.368-3.368 0-0.008-0-0.016-0-0.024v0.001c-0.013-1.851-1.516-3.346-3.368-3.346-0 0-0 0-0 0v0z"></path>
</symbol>
<symbol id="icon-VIEW" viewBox="0 0 55 32">
<title>VIEW</title>
<path fill="#95e1d3" style="fill: var(--color1, #95e1d3)" d="M55.265 16.071c-0.001 0.009-0.001 0.018-0.001 0.028s0 0.020 0.001 0.030l-0-0.001v0.028c0 0.028 0 0.028 0 0.057s0 0.028 0 0.057v0c-0.064 0.458-0.269 0.859-0.569 1.167l0-0c-0.569 0.711-1.212 1.365-1.849 2.020-3.355 3.476-7.22 6.43-11.479 8.751l-0.249 0.124c-2.536 1.405-5.477 2.507-8.586 3.151l-0.204 0.035c-1.411 0.275-3.035 0.433-4.694 0.433-1.914 0-3.779-0.209-5.574-0.607l0.171 0.032c-6.051-1.568-11.304-4.386-15.694-8.177l0.049 0.042c-2.215-1.769-4.178-3.671-5.947-5.743l-0.050-0.060c-0.359-0.392-0.58-0.917-0.58-1.493s0.22-1.101 0.581-1.495l-0.001 0.002c0.569-0.683 1.212-1.337 1.852-1.991 3.355-3.477 7.219-6.431 11.479-8.751l0.248-0.124c2.536-1.405 5.475-2.507 8.583-3.151l0.203-0.035c1.414-0.282 3.039-0.443 4.702-0.443 1.912 0 3.774 0.213 5.564 0.618l-0.168-0.032c6.054 1.555 11.31 4.375 15.692 8.175l-0.047-0.040c2.216 1.76 4.179 3.653 5.948 5.717l0.048 0.057c0.289 0.314 0.491 0.712 0.567 1.153l0.002 0.013c0 0.028 0 0.028 0 0.028 0.002 0.009 0.002 0.018 0.002 0.028s-0.001 0.020-0.003 0.029l0-0.001s0 0.028 0 0.028c-0.001 0.008-0.001 0.018-0.001 0.028s0 0.020 0.001 0.030l-0-0.001c0 0.028 0 0.028 0 0.057s0 0.085 0 0.114 0 0.057 0 0.114zM27.62 5.148c-0.001 0-0.002 0-0.003 0-5.726 0-10.368 4.642-10.368 10.368s4.642 10.368 10.368 10.368c5.721 0 10.36-4.634 10.368-10.353v-0.001c0-0.004 0-0.009 0-0.014 0-5.725-4.64-10.366-10.365-10.368h-0zM27.62 20.708c-0.003 0-0.006 0-0.009 0-2.867 0-5.191-2.324-5.191-5.191s2.324-5.191 5.191-5.191c2.867 0 5.191 2.324 5.191 5.191 0 0.005 0 0.010-0 0.015v-0.001c-0.008 2.858-2.324 5.172-5.182 5.177h-0z"></path>
</symbol>
<symbol id="icon-facebook" viewBox="0 0 15 32">
<title>facebook</title>
<path d="M14.982 0.013v5.146s-3.793-0.375-4.746 1.074c-0.52 0.799-0.211 3.123-0.257 4.796h5.032c-0.425 1.948-0.729 3.272-1.043 4.971h-4.017v15.988h-6.972c0-4.934 0-10.679 0-15.925h-2.966v-5.034h2.934c0.15-3.685 0.206-7.332 2.035-9.18 2.056-2.086 4.019-1.836 10.001-1.836z"></path>
</symbol>
<symbol id="icon-instagram" viewBox="0 0 32 32">
<title>instagram</title>
<path d="M27.962 31.988h-23.981c-2.207 0-3.997-1.789-3.997-3.997v0-23.981c0-2.207 1.789-3.997 3.997-3.997v0h23.981c2.207 0 3.997 1.789 3.997 3.997v0 23.981c0 2.207-1.789 3.997-3.997 3.997v0zM15.971 9.805c-0 0-0.001 0-0.001 0-2.478 0-4.615 1.456-5.603 3.559l-0.016 0.038c-0.008 0.024-0.017 0.045-0.028 0.064l0.001-0.001c-0.059 0.137-0.11 0.275-0.16 0.412-0.024 0.062-0.050 0.125-0.071 0.187-0.046 0.137-0.084 0.287-0.125 0.425-0.018 0.062-0.037 0.137-0.052 0.2-0.032 0.15-0.055 0.3-0.076 0.462-0.009 0.062-0.021 0.125-0.029 0.187-0.023 0.198-0.036 0.428-0.036 0.661v0.001c0 3.422 2.774 6.195 6.195 6.195s6.195-2.774 6.195-6.195v0c-0.001-0.234-0.014-0.464-0.039-0.691l0.003 0.029c-0.008-0.062-0.020-0.125-0.029-0.187-0.021-0.162-0.044-0.312-0.076-0.462-0.015-0.062-0.035-0.137-0.052-0.2-0.035-0.137-0.072-0.287-0.125-0.425-0.021-0.062-0.047-0.125-0.071-0.187-0.050-0.137-0.101-0.275-0.16-0.412-0.011-0.018-0.020-0.039-0.027-0.060l-0.001-0.002c-1.004-2.14-3.139-3.596-5.615-3.597h-0zM28.362 5.208c0-0.001 0-0.002 0-0.003 0-0.882-0.715-1.596-1.596-1.596-0.001 0-0.002 0-0.003 0h-3.197c-0.001 0-0.002 0-0.003 0-0.882 0-1.596 0.715-1.596 1.596 0 0.001 0 0.002 0 0.003v-0 3.198c0 0.001 0 0.002 0 0.002 0 0.882 0.715 1.596 1.596 1.596 0.001 0 0.002 0 0.003 0h3.197c0.001 0 0.002 0 0.003 0 0.882 0 1.596-0.715 1.596-1.596 0-0.001 0-0.002 0-0.003v0-3.197zM28.362 13.402h-2.948c0.222 0.778 0.35 1.671 0.35 2.594 0 5.408-4.384 9.792-9.792 9.792s-9.792-4.384-9.792-9.792c0-0.923 0.128-1.816 0.366-2.663l-0.017 0.069h-2.948v13.39c0 0.001 0 0.002 0 0.003 0 0.882 0.715 1.596 1.596 1.596 0.001 0 0.002 0 0.003 0h21.583c0.001 0 0.002 0 0.003 0 0.882 0 1.596-0.715 1.596-1.596 0-0.001 0-0.002 0-0.003v0-13.39z"></path>
</symbol>
<symbol id="icon-pinterest" viewBox="0 0 24 32">
<title>pinterest</title>
<path d="M10.173 20.771c-0.261 1.049-0.525 2.136-0.797 3.197-0.268 1.217-0.576 2.249-0.95 3.249l0.054-0.163c-0.652 1.69-1.513 3.148-2.574 4.436l0.022-0.027c-0.718 0.824-0.566 0.5-0.782 0.45-0.165-0.037-0.179-0.2-0.211-0.425-0.055-0.61-0.086-1.319-0.086-2.035 0-0.752 0.034-1.496 0.102-2.231l-0.007 0.094c0.115-1.598 0.376-3.080 0.774-4.506l-0.038 0.159c0.605-2.573 1.182-5.096 1.792-7.694 0.063-0.162 0.104-0.35 0.112-0.546l0-0.004c-0.257-0.619-0.446-1.337-0.532-2.086l-0.003-0.037c-0.026-0.223-0.041-0.48-0.041-0.742 0-0.602 0.078-1.185 0.225-1.741l-0.011 0.047c0.268-1.324 1.155-2.395 2.34-2.913l0.026-0.010c0.262-0.091 0.565-0.144 0.88-0.144 0.471 0 0.914 0.118 1.302 0.326l-0.015-0.007c0.556 0.337 0.953 0.887 1.081 1.534l0.002 0.015c0.052 0.286 0.082 0.614 0.082 0.95 0 0.501-0.066 0.987-0.19 1.45l0.009-0.039c-0.334 1.524-0.772 2.673-1.17 4.134-0.181 0.472-0.286 1.018-0.286 1.589 0 0.237 0.018 0.47 0.053 0.698l-0.003-0.025c0.148 0.664 0.528 1.221 1.050 1.593l0.008 0.005c0.503 0.364 1.133 0.582 1.813 0.582 0.076 0 0.152-0.003 0.227-0.008l-0.010 0.001c1.384-0.127 2.572-0.868 3.301-1.945l0.010-0.016c1.168-1.641 1.928-3.647 2.090-5.819l0.002-0.039c0.068-0.527 0.107-1.137 0.107-1.756 0-0.265-0.007-0.529-0.021-0.791l0.002 0.037c-0.059-1.479-0.579-2.826-1.419-3.913l0.012 0.016c-0.803-0.985-1.869-1.727-3.091-2.123l-0.047-0.013c-0.885-0.274-1.903-0.432-2.958-0.432-0.608 0-1.205 0.053-1.784 0.153l0.062-0.009c-2.693 0.411-4.926 2.073-6.117 4.363l-0.022 0.046c-0.659 1.208-1.046 2.645-1.046 4.173 0 0.030 0 0.060 0 0.091l-0-0.005c-0.002 0.052-0.003 0.113-0.003 0.174 0 1.093 0.317 2.113 0.863 2.972l-0.013-0.022c0.166 0.25 0.41 0.462 0.572 0.749 0.040 0.156 0.064 0.334 0.064 0.518 0 0.338-0.078 0.658-0.218 0.943l0.006-0.013c-0.137 0.537-0.152 1.262-0.772 1.274-0.301-0.034-0.573-0.141-0.802-0.303l0.005 0.004c-1.635-1.003-2.772-2.683-3.022-4.64l-0.003-0.032c-0.118-0.607-0.185-1.304-0.185-2.017s0.067-1.411 0.196-2.086l-0.011 0.069c0.684-3.297 2.697-6.027 5.442-7.652l0.054-0.029c1.403-0.837 3.052-1.428 4.813-1.666l0.067-0.007c0.59-0.089 1.283-0.147 1.987-0.162l0.018-0c0.171-0.009 0.371-0.014 0.573-0.014 1.748 0 3.408 0.373 4.907 1.043l-0.076-0.030c1.461 0.655 2.7 1.562 3.714 2.676l0.008 0.009c1.044 1.139 1.834 2.526 2.273 4.063l0.017 0.072c0.292 0.849 0.472 1.829 0.499 2.847l0 0.013c-0.047 1.076-0.185 2.092-0.407 3.076l0.022-0.116c-0.421 3.337-2.201 6.191-4.759 8.033l-0.035 0.024c-1.324 0.865-2.945 1.38-4.686 1.38-0.109 0-0.218-0.002-0.326-0.006l0.016 0c-0.917-0.057-1.763-0.318-2.506-0.739l0.029 0.015c-0.69-0.365-1.25-0.896-1.637-1.543l-0.010-0.019z"></path>
</symbol>
<symbol id="icon-twitter" viewBox="0 0 39 32">
<title>twitter</title>
<path d="M26.811 0.015c0.121-0.006 0.262-0.010 0.404-0.010 2.35 0 4.473 0.977 5.983 2.547l0.003 0.003c1.552-0.258 2.944-0.747 4.212-1.436l-0.070 0.035 1.005-0.554c-0.51 1.537-1.417 2.827-2.602 3.79l-0.015 0.012c-0.257 0.244-0.549 0.454-0.867 0.621l-0.021 0.010v0.015c1.693-0.182 3.241-0.617 4.67-1.27l-0.094 0.038v0.015c-0.765 1.212-1.673 2.248-2.721 3.123l-0.021 0.017c-0.42 0.339-0.842 0.677-1.262 1 0.012 0.28 0.019 0.609 0.019 0.939 0 1.508-0.143 2.982-0.416 4.409l0.023-0.146c-2.019 9.066-7.37 15.223-15.837 17.87-2.009 0.597-4.318 0.941-6.707 0.941-1.675 0-3.31-0.169-4.889-0.491l0.157 0.027c-1.846-0.445-3.43-0.978-4.951-1.631l0.2 0.076c-0.904-0.398-1.655-0.794-2.376-1.235l0.087 0.050c-0.237-0.139-0.473-0.292-0.71-0.431 0.539 0.073 1.163 0.114 1.796 0.114 0.277 0 0.551-0.008 0.824-0.024l-0.038 0.002c0.796-0.123 1.575-0.092 2.309-0.246 1.826-0.36 3.45-0.968 4.934-1.798l-0.084 0.043c0.838-0.395 1.559-0.873 2.2-1.44l-0.010 0.009c-0.864-0.003-1.691-0.16-2.454-0.447l0.049 0.016c-2.432-0.84-4.308-2.73-5.112-5.114l-0.017-0.057c0.433 0.083 0.931 0.131 1.44 0.131 0.773 0 1.519-0.11 2.226-0.314l-0.056 0.014c-1.005-0.139-1.902-0.516-2.659-1.073l0.016 0.011c-2.296-1.372-3.81-3.845-3.81-6.671 0-0.084 0.001-0.168 0.004-0.252l-0 0.012c0.277 0.123 0.553 0.262 0.828 0.385 0.486 0.204 1.055 0.37 1.646 0.471l0.047 0.007c0.218 0.079 0.47 0.124 0.732 0.124 0.132 0 0.261-0.011 0.387-0.034l-0.013 0.002h-0.040c-0.406-0.462-1.070-0.785-1.479-1.293-1.264-1.443-2.036-3.346-2.036-5.429 0-0.673 0.081-1.327 0.232-1.954l-0.012 0.056c0.222-0.803 0.519-1.503 0.892-2.154l-0.024 0.045c0.014 0 0.026 0.015 0.040 0.015 0.216 0.319 0.457 0.597 0.726 0.843l0.004 0.003c0.716 0.862 1.505 1.62 2.371 2.283l0.035 0.026c2.752 2.254 6.078 3.916 9.721 4.741l0.159 0.030c1.084 0.287 2.333 0.46 3.619 0.477l0.011 0c-0.142-0.548-0.224-1.178-0.224-1.827 0-0.703 0.096-1.383 0.275-2.028l-0.013 0.053c0.612-2.453 2.302-4.42 4.525-5.398l0.051-0.020c0.512-0.225 1.112-0.417 1.736-0.544l0.058-0.010c0.326-0.046 0.656-0.077 0.984-0.123z"></path>
</symbol>
<symbol id="icon-image" viewBox="0 0 32 32">
<title>image</title>
<path d="M29.996 4c0.001 0.001 0.003 0.002 0.004 0.004v23.993c-0.001 0.001-0.002 0.003-0.004 0.004h-27.993c-0.001-0.001-0.003-0.002-0.004-0.004v-23.993c0.001-0.001 0.002-0.003 0.004-0.004h27.993zM30 2h-28c-1.1 0-2 0.9-2 2v24c0 1.1 0.9 2 2 2h28c1.1 0 2-0.9 2-2v-24c0-1.1-0.9-2-2-2v0z"></path>
<path d="M26 9c0 1.657-1.343 3-3 3s-3-1.343-3-3 1.343-3 3-3 3 1.343 3 3z"></path>
<path d="M28 26h-24v-4l7-12 8 10h2l7-6z"></path>
</symbol>
<symbol id="icon-bubbles2" viewBox="0 0 36 32">
<title>bubbles2</title>
<path d="M15 0v0c8.284 0 15 5.435 15 12.139s-6.716 12.139-15 12.139c-0.796 0-1.576-0.051-2.339-0.147-3.222 3.209-6.943 3.785-10.661 3.869v-0.785c2.008-0.98 3.625-2.765 3.625-4.804 0-0.285-0.022-0.564-0.063-0.837-3.392-2.225-5.562-5.625-5.562-9.434 0-6.704 6.716-12.139 15-12.139zM31.125 27.209c0 1.748 1.135 3.278 2.875 4.118v0.673c-3.223-0.072-6.181-0.566-8.973-3.316-0.661 0.083-1.337 0.126-2.027 0.126-2.983 0-5.732-0.805-7.925-2.157 4.521-0.016 8.789-1.464 12.026-4.084 1.631-1.32 2.919-2.87 3.825-4.605 0.961-1.84 1.449-3.799 1.449-5.825 0-0.326-0.014-0.651-0.039-0.974 2.268 1.873 3.664 4.426 3.664 7.24 0 3.265-1.88 6.179-4.82 8.086-0.036 0.234-0.055 0.474-0.055 0.718z"></path>
</symbol>
<symbol id="icon-pinterest2" viewBox="0 0 32 32">
<title>pinterest2</title>
<path d="M16 0c-8.825 0-16 7.175-16 16s7.175 16 16 16 16-7.175 16-16-7.175-16-16-16zM16 29.863c-1.431 0-2.806-0.219-4.106-0.619 0.563-0.919 1.412-2.431 1.725-3.631 0.169-0.65 0.863-3.294 0.863-3.294 0.45 0.863 1.775 1.594 3.175 1.594 4.181 0 7.194-3.844 7.194-8.625 0-4.581-3.738-8.006-8.544-8.006-5.981 0-9.156 4.019-9.156 8.387 0 2.031 1.081 4.563 2.813 5.369 0.262 0.125 0.4 0.069 0.463-0.188 0.044-0.194 0.281-1.131 0.387-1.575 0.031-0.137 0.019-0.262-0.094-0.4-0.575-0.694-1.031-1.975-1.031-3.162 0-3.056 2.313-6.019 6.256-6.019 3.406 0 5.788 2.319 5.788 5.637 0 3.75-1.894 6.35-4.356 6.35-1.363 0-2.381-1.125-2.050-2.506 0.394-1.65 1.15-3.425 1.15-4.613 0-1.063-0.569-1.95-1.756-1.95-1.394 0-2.506 1.438-2.506 3.369 0 1.225 0.412 2.056 0.412 2.056s-1.375 5.806-1.625 6.887c-0.281 1.2-0.169 2.881-0.050 3.975-5.156-2.012-8.813-7.025-8.813-12.9 0-7.656 6.206-13.863 13.862-13.863s13.863 6.206 13.863 13.863c0 7.656-6.206 13.863-13.863 13.863z"></path>
</symbol>
<symbol id="icon-USERS" viewBox="0 0 45 32">
<title>USERS</title>
<path d="M45.38 30.58v0.014c-0.008 0.778-0.641 1.406-1.42 1.406-0 0-0 0-0 0h-10.527c0.793-0.184 1.376-0.883 1.381-1.718v-0.001s0-6.391-4.687-8.721c-0.902-0.527-1.963-0.894-3.093-1.033l-0.040-0.004 0.028-2.77c-0.858-0.9-1.398-2.109-1.436-3.444l-0-0.007c-0.685 0.185-0.91-0.81-0.952-1.449-0.037-0.611-0.396-2.528 0.44-2.358-0.15-0.844-0.236-1.815-0.236-2.806 0-0.082 0.001-0.164 0.002-0.246l-0 0.012c0.472-2.608 2.725-4.559 5.434-4.559 0.017 0 0.035 0 0.052 0l-0.003-0c3.762 0.156 5.255 2.4 5.461 4.545 0.001 0.054 0.001 0.118 0.001 0.182 0 1.015-0.089 2.009-0.26 2.974l0.015-0.102c0.837-0.17 0.473 1.747 0.426 2.358-0.035 0.639-0.267 1.633-0.95 1.435-0.039 1.342-0.58 2.552-1.439 3.453l0.002-0.002 0.026 2.755s0.693 0.398 3.616 1.605 2.005 0.312 4.386 1.491c3.762 1.861 3.762 6.988 3.762 6.988v0zM24.178 21.12c3.213 1.335 2.204 0.341 4.822 1.633 4.136 2.045 4.136 7.698 4.136 7.698v0c-0.002 0.856-0.697 1.548-1.552 1.548 0 0 0 0 0 0h-30.031c0 0 0 0 0 0-0.856 0-1.55-0.693-1.552-1.548v-0s0-5.653 4.136-7.698c2.618-1.293 1.609-0.241 4.829-1.577 1.593-0.604 2.903-1.206 4.168-1.883l-0.191 0.093 0.030-3.054c-0.941-0.989-1.534-2.318-1.576-3.784l-0-0.008c-0.753 0.213-1.001-0.881-1.045-1.577s-0.436-2.784 0.482-2.599c-0.164-0.925-0.258-1.99-0.258-3.078 0-0.096 0.001-0.193 0.002-0.289l-0 0.015c0.525-2.861 2.999-5 5.973-5 0.019 0 0.039 0 0.058 0l-0.003-0c4.135 0.17 5.774 2.642 6.002 5 0.001 0.055 0.001 0.121 0.001 0.187 0 1.118-0.098 2.214-0.286 3.278l0.016-0.113c0.919-0.185 0.52 1.917 0.474 2.585-0.040 0.71-0.294 1.804-1.045 1.577-0.037 1.476-0.632 2.806-1.58 3.794l0.002-0.002 0.027 3.040c1.028 0.541 2.333 1.133 3.671 1.66l0.291 0.101z"></path>
</symbol>
<symbol id="icon-google-plus" viewBox="0 0 37 32">
<title>google-plus</title>
<path d="M31.35 8.058v5.666h-2.322v-5.666h-5.805v-2.322h5.806v-5.666h2.322v5.666h5.805v2.322h-5.806zM15.292 2.322c1.955 0.994 3.271 2.991 3.271 5.295 0 0.041-0 0.081-0.001 0.122l0-0.006c-0.145 2.048-1.245 3.811-2.853 4.862l-0.024 0.015c-1.075 0.48-1.823 1.516-1.881 2.733l-0 0.007c0.528 1.27 1.423 2.299 2.552 2.98l0.028 0.016c2.027 1.166 3.371 3.32 3.371 5.788 0 0.169-0.006 0.337-0.019 0.504l0.001-0.022c0 3.46-3.353 7.361-9.558 7.361-5.443 0-10.178-2.601-10.178-6.084 0-3.53 4.333-6.943 9.774-6.943 0.595 0 1.138-0.023 1.7-0.023-0.769-0.651-1.272-1.597-1.332-2.661l-0-0.010c0.021-0.675 0.202-1.304 0.505-1.856l-0.011 0.021c-0.295 0.023-0.597-0.023-0.908-0.023-0.107 0.006-0.233 0.009-0.36 0.009-3.919 0-7.097-3.174-7.104-7.091v-0.001c0-3.808 4.136-7.292 8.529-7.292h9.8l-2.195 2.299h-3.107zM10.812 19.855c-3.762-0.046-7.131 2.253-7.131 4.993 0 2.81 2.717 4.877 6.477 4.877 5.288 0 7.131-1.904 7.131-4.714 0-0 0-0.001 0-0.001 0-0.354-0.044-0.698-0.127-1.026l0.006 0.029c-0.413-1.602-1.876-2.369-3.92-3.762-0.714-0.25-1.537-0.395-2.394-0.395-0.015 0-0.030 0-0.045 0h0.002zM15.039 7.779c-0.241-3.024-2.509-5.453-5.433-5.94l-0.038-0.005c-2.524-0.070-4.217 2.415-3.781 5.666 0.199 3.027 2.422 5.481 5.319 6.031l0.041 0.006c2.524 0.070 4.326-2.508 3.892-5.759z"></path>
</symbol>
<symbol id="icon-tumblr" viewBox="0 0 20 32">
<title>tumblr</title>
<path d="M19.981 30.243c-1.050 0.523-2.279 0.981-3.559 1.309l-0.132 0.029c-1.052 0.254-2.259 0.399-3.501 0.399-0.025 0-0.050-0-0.074-0h0.004c-0.066 0.002-0.144 0.003-0.223 0.003-1.15 0-2.253-0.206-3.272-0.583l0.065 0.021c-1.102-0.351-2.054-0.89-2.868-1.586l0.011 0.009c-0.703-0.578-1.261-1.307-1.628-2.139l-0.015-0.037c-0.294-0.878-0.464-1.89-0.464-2.941 0-0.145 0.003-0.29 0.010-0.433l-0.001 0.020v-11.199h-4.32v-4.531c1.372-0.392 2.569-0.994 3.623-1.778l-0.030 0.021c0.879-0.752 1.599-1.66 2.123-2.685l0.023-0.050c0.567-1.187 0.962-2.567 1.11-4.019l0.004-0.053h4.512v7.386h7.35v5.709h-7.35v8.185c-0.024 0.31-0.038 0.671-0.038 1.036 0 0.854 0.076 1.691 0.223 2.503l-0.013-0.085c0.257 0.582 0.675 1.054 1.198 1.37l0.013 0.008c0.672 0.402 1.482 0.639 2.348 0.639 0.023 0 0.046-0 0.069-0l-0.003 0c1.804-0.035 3.465-0.621 4.829-1.595l-0.026 0.018v5.051z"></path>
</symbol>
<symbol id="icon-youtube" viewBox="0 0 47 32">
<title>youtube</title>
<path d="M39.38-0.029h-30.993c-3.951 0-8.387 2.647-8.387 6.516v19.258c0 3.869 4.436 6.225 8.387 6.225h30.993c0.207 0.023 0.447 0.037 0.69 0.037 3.5 0 6.35-2.78 6.463-6.252l0-0.010v-19.258c-0.089-3.627-3.049-6.532-6.689-6.532-0.163 0-0.325 0.006-0.486 0.017l0.022-0.001zM20.259 23.389l-0.093-14.662 10.205 7.389z"></path>
</symbol>
<symbol id="icon-circle-up" viewBox="0 0 32 32">
<title>circle-up</title>
<path d="M0 16c0 8.837 7.163 16 16 16s16-7.163 16-16-7.163-16-16-16-16 7.163-16 16zM29 16c0 7.18-5.82 13-13 13s-13-5.82-13-13 5.82-13 13-13 13 5.82 13 13z"></path>
<path d="M22.086 20.914l2.829-2.829-8.914-8.914-8.914 8.914 2.828 2.828 6.086-6.086z"></path>
</symbol>

<symbol id="icon-recycle" viewBox="0 0 40 32">
<title>recycle</title>
<path fill="#fff" style="fill: var(--color1, #fff)" d="M40.003 7.070v0l-5.656 12.544c-0.282 0.626-0.884 1.063-1.592 1.104l-0.005 0-16.238 1.083 0.935 2.684h17.698c2.078 0 3.763 1.685 3.763 3.763s-1.685 3.763-3.763 3.763c-2.078 0-3.762-1.683-3.763-3.761v-0h-17.561c-0.001 2.077-1.686 3.761-3.763 3.761s-3.763-1.685-3.763-3.763 1.685-3.763 3.763-3.763h3.398l-7.253-20.697h-4.31c-1.039 0-1.882-0.842-1.882-1.882s0.842-1.882 1.882-1.882h5.656c0.816 0.006 1.51 0.525 1.775 1.25l0.004 0.013 1.095 3.131h27.847c0.003 0 0.006-0 0.009-0 1.040 0 1.883 0.842 1.884 1.881v0c-0.006 0.278-0.064 0.542-0.165 0.783l0.005-0.014zM11.745 8.181l3.467 9.937 16.17-1.079 3.991-8.858h-23.628z"></path>
</symbol>
<symbol id="icon-search" viewBox="0 0 32 32">
<title>search</title>
<path fill="#fff" style="fill: var(--color1, #fff)" d="M31.101 26.862c0.541 0.543 0.876 1.292 0.876 2.119 0 1.657-1.343 3-3 3-0.83 0-1.581-0.337-2.124-0.881l-0-0-8.769-8.78c-1.753 1.056-3.87 1.68-6.132 1.68-6.645 0-12.032-5.387-12.032-12.032s5.387-12.032 12.032-12.032c6.645 0 12.032 5.387 12.032 12.032 0 2.255-0.62 4.365-1.7 6.169l0.030-0.055 8.788 8.78zM12.001 3.016c-4.963 0-8.987 4.024-8.987 8.987s4.024 8.987 8.987 8.987c4.963 0 8.987-4.024 8.987-8.987v0c-0.003-4.962-4.025-8.984-8.987-8.987h-0z"></path>
</symbol>
</defs>
</svg>
